<svg width="16" height="16" viewBox="0 0 16 16" fill="none" xmlns="http://www.w3.org/2000/svg">
<path d="M9.93387 4.56648L9.9339 4.56651L12.5686 7.20035L1.5 7.20035C1.28783 7.20035 1.08434 7.28463 0.934315 7.43466C0.784285 7.58469 0.7 7.78817 0.7 8.00035C0.7 8.21252 0.784286 8.416 0.934315 8.56603C1.08434 8.71606 1.28783 8.80035 1.5 8.80035H12.5686L9.9339 11.4342L9.93387 11.4342C9.78372 11.5844 9.69937 11.788 9.69937 12.0003C9.69937 12.2127 9.78372 12.4163 9.93387 12.5665C10.084 12.7166 10.2877 12.801 10.5 12.801C10.7123 12.801 10.916 12.7166 11.0661 12.5665L15.0659 8.56674C15.0659 8.56667 15.066 8.56659 15.0661 8.56652C15.0661 8.56651 15.0661 8.56649 15.0661 8.56648C15.1405 8.49222 15.1995 8.40403 15.2398 8.30696C15.2801 8.20977 15.3009 8.10557 15.3009 8.00035C15.3009 7.89512 15.2801 7.79092 15.2398 7.69373C15.1995 7.59666 15.1405 7.50847 15.0661 7.43421C15.0661 7.4342 15.0661 7.43419 15.0661 7.43417C15.066 7.4341 15.0659 7.43402 15.0659 7.43395L11.0661 3.43421C10.916 3.28407 10.7123 3.19971 10.5 3.19971C10.2877 3.19971 10.084 3.28407 9.93387 3.43421C9.78372 3.58436 9.69937 3.78801 9.69937 4.00035C9.69937 4.21268 9.78372 4.41633 9.93387 4.56648Z" fill="black" stroke="black" stroke-width="0.6"/>
</svg>
